<?xml version="1.0" encoding="UTF-8"?>
<svg id="Layer_1" xmlns="http://www.w3.org/2000/svg" version="1.1" viewBox="0 0 925.6 135.21">
  <!-- Generator: Adobe Illustrator 30.1.0, SVG Export Plug-In . SVG Version: 2.1.1 Build 136)  -->
  <defs>
    <style>
      .st0 {
        fill: #fff;
      }
    </style>
  </defs>
  <path class="st0" d="M252.2,21.66h.26l6.58-21.66h10.79l-10.86,34.55h-11.91l-6.91-21.83h-.26l-6.91,21.83h-11.71L210.41,0h11.19l6.58,21.66h.26l6.84-21.66h10.07l6.84,21.66Z"/>
  <path class="st0" d="M271.89,0h10.79v7.79h-10.79V0ZM282.61,10.09v24.46h-10.66V10.09h10.66Z"/>
  <path class="st0" d="M309.71,18.75c-1.45-.71-3.03-1.04-5.07-1.04-3.95,0-6.38,1.54-6.38,5.65v11.19h-10.66V10.09h10.66v4.33c1.05-2.74,4.15-4.99,8.03-4.99,1.78,0,3.36.44,4.08.93l-.66,8.39Z"/>
  <path class="st0" d="M333.96,30.38c-1.38,2.85-4.74,4.83-9.61,4.83-8.69,0-13.03-5.65-13.03-12.89s4.34-12.89,13.03-12.89c4.87,0,8.23,1.97,9.61,4.88V0h10.66v34.55h-10.66v-4.17ZM333.96,22.16c0-3.51-2.3-5.81-5.86-5.81-4.21,0-6.05,2.47-6.05,5.98s1.84,6.03,6.05,6.03c3.55,0,5.86-2.3,5.86-5.87v-.33Z"/>
  <path class="st0" d="M391.47,26.49c-1.51,5.59-6.91,8.72-14.68,8.72-9.41,0-16.12-4.72-16.12-12.5s6.84-13.27,15.99-13.27c9.81,0,15,5.59,15,12.23v2.47h-20.6c.26,3.02,2.9,4.44,6.12,4.44,2.9,0,4.74-.82,5.73-2.74l8.56.66ZM381.54,19.85c-.13-2.19-1.84-4.06-5-4.06-3.42,0-4.94,1.75-5.33,4.06h10.33Z"/>
  <path class="st0" d="M402.65,26.49c.39,2.03,2.37,3.18,5.59,3.18,2.37,0,3.62-.71,3.62-1.7,0-.93-.66-1.59-2.7-1.86l-4.34-.55c-7.11-.93-10.86-2.85-10.86-7.84s5.07-8.28,13.29-8.28,13.49,3.13,14.08,8.23l-8.75.22c-.4-1.75-2.24-2.85-5.53-2.85-2.04,0-3.22.66-3.22,1.75,0,.82.79,1.26,1.78,1.37l5.73.82c6.58.88,10.4,3.34,10.4,8.12,0,5.15-5.26,8.12-13.62,8.12s-14.15-2.69-14.74-8.61l9.28-.11Z"/>
  <path class="st0" d="M448.32,34.55h-10.66V10.09h10.66v3.67c1.58-2.69,5.07-4.33,9.48-4.33,8.03,0,10.6,4.66,10.6,9.76v15.36h-10.66v-13c0-3.35-1.12-5.1-4.34-5.1-3.62,0-5.07,2.41-5.07,6.09v12.01Z"/>
  <path class="st0" d="M473.13,0h10.79v7.79h-10.79V0ZM483.86,10.09v24.46h-10.66V10.09h10.66Z"/>
  <path class="st0" d="M503.29,9.43c8.82,0,13.75,4.77,14.48,10.64l-8.75.49c-.72-3.02-2.5-4.44-5.59-4.44s-5.46,1.81-5.46,6.2,2.24,6.2,5.46,6.2,4.87-1.48,5.59-4.5l8.75.55c-.72,5.92-5.66,10.64-14.48,10.64-9.28,0-16.06-5.1-16.06-12.89s6.78-12.89,16.06-12.89Z"/>
  <path class="st0" d="M531.89,34.55h-10.66V0h10.66v13.76c1.58-2.69,5.07-4.33,9.48-4.33,8.03,0,10.6,4.66,10.6,9.76v15.36h-10.66v-13c0-3.35-1.12-5.1-4.34-5.1-3.62,0-5.07,2.41-5.07,6.09v12.01Z"/>
  <path class="st0" d="M557.76,16.23h-3.95v-5.48l2.17-.27c2.96-.38,3.88-1.7,4.61-3.95l.99-3.18h6.71v6.75h7.63v6.14h-7.63v8.94c0,2.08,1.18,2.91,3.36,2.91,1.32,0,2.76-.22,4.54-.82v5.76c-2.24,1.37-4.8,2.19-8.82,2.19-4.94,0-9.61-1.7-9.61-7.46v-11.52Z"/>
  <path class="st0" d="M626.33,26.87v7.68h-35.14v-7.07l20.4-19.8h-20.2V0h34.42v7.24l-20.53,19.63h21.06Z"/>
  <path class="st0" d="M659.07,26.49c-1.51,5.59-6.91,8.72-14.68,8.72-9.41,0-16.12-4.72-16.12-12.5s6.84-13.27,15.99-13.27c9.81,0,15,5.59,15,12.23v2.47h-20.6c.26,3.02,2.9,4.44,6.12,4.44,2.9,0,4.74-.82,5.73-2.74l8.56.66ZM649.13,19.85c-.13-2.19-1.84-4.06-5-4.06-3.42,0-4.94,1.75-5.33,4.06h10.33Z"/>
  <path class="st0" d="M662.82,0h10.79v7.79h-10.79V0ZM673.54,10.09v24.46h-10.66V10.09h10.66Z"/>
  <path class="st0" d="M679.89,16.23h-3.95v-5.48l2.17-.27c2.96-.38,3.88-1.7,4.61-3.95l.99-3.18h6.71v6.75h7.63v6.14h-7.63v8.94c0,2.08,1.18,2.91,3.36,2.91,1.32,0,2.76-.22,4.54-.82v5.76c-2.24,1.37-4.8,2.19-8.82,2.19-4.94,0-9.61-1.7-9.61-7.46v-11.52Z"/>
  <path class="st0" d="M702.03,21.58h11.32v8.83c0,5.43-4.01,8.06-11.32,8.23v-4.28c3.09-.06,4.94-1.15,4.94-3.35h-4.94v-9.43Z"/>
  <path class="st0" d="M22.64,80.38c-1.38,2.85-4.74,4.83-9.61,4.83-8.69,0-13.03-5.65-13.03-12.89s4.34-12.89,13.03-12.89c4.87,0,8.23,1.97,9.61,4.88v-14.31h10.66v34.55h-10.66v-4.17ZM22.64,72.16c0-3.51-2.3-5.81-5.86-5.81-4.21,0-6.05,2.47-6.05,5.98s1.84,6.03,6.05,6.03c3.55,0,5.86-2.3,5.86-5.87v-.33Z"/>
  <path class="st0" d="M65.92,77.37c0,1.26.66,1.81,1.78,1.81.86,0,1.51-.11,2.37-.38v4.72c-1.51.88-3.62,1.59-6.65,1.59-3.62,0-6.45-1.54-7.44-4.33-1.71,2.85-5.07,4.33-9.74,4.33-5.73,0-9.48-2.47-9.48-6.64,0-4.72,4.08-6.75,10.46-7.68l8.23-1.15v-.38c0-2.03-1.12-3.24-3.69-3.24-2.37,0-3.55,1.26-4.01,3.07l-9.87-.55c.92-5.37,5.73-9.1,14.54-9.1,7.77,0,13.49,2.8,13.49,9.6v8.34ZM55.45,73.96l-4.34.66c-2.57.44-4.08,1.1-4.08,2.69,0,1.26,1.18,2.08,2.96,2.08,3.03,0,5.46-1.86,5.46-5.04v-.38Z"/>
  <path class="st0" d="M80.33,76.49c.39,2.03,2.37,3.18,5.59,3.18,2.37,0,3.62-.71,3.62-1.7,0-.93-.66-1.59-2.7-1.86l-4.34-.55c-7.11-.93-10.86-2.85-10.86-7.84s5.07-8.28,13.29-8.28,13.49,3.13,14.08,8.23l-8.75.22c-.4-1.75-2.24-2.85-5.53-2.85-2.04,0-3.22.66-3.22,1.75,0,.82.79,1.26,1.78,1.37l5.73.82c6.58.88,10.4,3.34,10.4,8.12,0,5.15-5.26,8.12-13.62,8.12s-14.15-2.69-14.74-8.61l9.28-.11Z"/>
  <path class="st0" d="M110.42,76.49c.39,2.03,2.37,3.18,5.59,3.18,2.37,0,3.62-.71,3.62-1.7,0-.93-.66-1.59-2.7-1.86l-4.34-.55c-7.11-.93-10.86-2.85-10.86-7.84s5.07-8.28,13.29-8.28,13.49,3.13,14.08,8.23l-8.75.22c-.4-1.75-2.24-2.85-5.53-2.85-2.04,0-3.22.66-3.22,1.75,0,.82.79,1.26,1.78,1.37l5.73.82c6.58.88,10.4,3.34,10.4,8.12,0,5.15-5.26,8.12-13.62,8.12s-14.15-2.69-14.74-8.61l9.28-.11Z"/>
  <path class="st0" d="M175.57,73.96h.26l5.26-13.88h9.61l-9.28,24.46h-10.46l-4.28-13.82h-.26l-4.28,13.82h-10.46l-9.28-24.46h10.6l5.26,13.88h.26l4.28-13.88h8.49l4.28,13.88Z"/>
  <path class="st0" d="M192.64,50h10.79v7.79h-10.79v-7.79ZM203.37,60.09v24.46h-10.66v-24.46h10.66Z"/>
  <path class="st0" d="M230.46,68.75c-1.45-.71-3.03-1.04-5.07-1.04-3.95,0-6.38,1.54-6.38,5.65v11.19h-10.66v-24.46h10.66v4.33c1.05-2.74,4.15-4.99,8.03-4.99,1.78,0,3.36.44,4.08.93l-.66,8.39Z"/>
  <path class="st0" d="M265.6,60.09h10.66v24.46h-10.66v-3.67c-1.58,2.74-4.8,4.33-9.21,4.33-8.03,0-10.46-4.61-10.46-9.71v-15.41h10.66v13.05c0,3.29,1.12,5.1,4.34,5.1s4.67-2.41,4.67-6.14v-12.01Z"/>
  <path class="st0" d="M291.97,84.55h-10.66v-24.46h10.66v3.67c1.58-2.69,5.07-4.33,9.48-4.33,8.03,0,10.6,4.66,10.6,9.76v15.36h-10.66v-13c0-3.35-1.12-5.1-4.34-5.1-3.62,0-5.07,2.41-5.07,6.09v12.01Z"/>
  <path class="st0" d="M324.35,76.49c.39,2.03,2.37,3.18,5.59,3.18,2.37,0,3.62-.71,3.62-1.7,0-.93-.66-1.59-2.7-1.86l-4.34-.55c-7.11-.93-10.86-2.85-10.86-7.84s5.07-8.28,13.29-8.28,13.49,3.13,14.08,8.23l-8.75.22c-.4-1.75-2.24-2.85-5.53-2.85-2.04,0-3.22.66-3.22,1.75,0,.82.79,1.26,1.78,1.37l5.73.82c6.58.88,10.4,3.34,10.4,8.12,0,5.15-5.26,8.12-13.62,8.12s-14.15-2.69-14.74-8.61l9.28-.11Z"/>
  <path class="st0" d="M398.31,59.43c8.09,0,10.46,4.66,10.46,9.76v15.36h-10.66v-13c0-3.35-.72-5.1-3.95-5.1-3.55,0-4.74,2.41-4.74,6.09v12.01h-10.66v-13c0-3.35-.79-5.1-4.01-5.1-3.49,0-4.74,2.41-4.74,6.09v12.01h-10.66v-24.46h10.66v3.67c1.58-2.69,4.74-4.33,9.15-4.33,5.2,0,7.9,1.97,9.15,4.83,1.58-2.74,5.07-4.83,10-4.83Z"/>
  <path class="st0" d="M441.09,77.37c0,1.26.66,1.81,1.78,1.81.86,0,1.51-.11,2.37-.38v4.72c-1.51.88-3.62,1.59-6.65,1.59-3.62,0-6.45-1.54-7.44-4.33-1.71,2.85-5.07,4.33-9.74,4.33-5.73,0-9.48-2.47-9.48-6.64,0-4.72,4.08-6.75,10.46-7.68l8.23-1.15v-.38c0-2.03-1.12-3.24-3.69-3.24-2.37,0-3.55,1.26-4.01,3.07l-9.87-.55c.92-5.37,5.73-9.1,14.54-9.1,7.77,0,13.49,2.8,13.49,9.6v8.34ZM430.62,73.96l-4.34.66c-2.57.44-4.08,1.1-4.08,2.69,0,1.26,1.18,2.08,2.96,2.08,3.03,0,5.46-1.86,5.46-5.04v-.38Z"/>
  <path class="st0" d="M458.51,50v34.55h-10.66v-34.55h10.66Z"/>
  <path class="st0" d="M503.59,77.37c0,1.26.66,1.81,1.78,1.81.86,0,1.51-.11,2.37-.38v4.72c-1.51.88-3.62,1.59-6.65,1.59-3.62,0-6.45-1.54-7.44-4.33-1.71,2.85-5.07,4.33-9.74,4.33-5.73,0-9.48-2.47-9.48-6.64,0-4.72,4.08-6.75,10.46-7.68l8.23-1.15v-.38c0-2.03-1.12-3.24-3.69-3.24-2.37,0-3.55,1.26-4.01,3.07l-9.87-.55c.92-5.37,5.73-9.1,14.54-9.1,7.77,0,13.49,2.8,13.49,9.6v8.34ZM493.13,73.96l-4.34.66c-2.57.44-4.08,1.1-4.08,2.69,0,1.26,1.18,2.08,2.96,2.08,3.03,0,5.46-1.86,5.46-5.04v-.38Z"/>
  <path class="st0" d="M529.25,60.09h10.66v24.46h-10.66v-3.67c-1.58,2.74-4.8,4.33-9.21,4.33-8.03,0-10.46-4.61-10.46-9.71v-15.41h10.66v13.05c0,3.29,1.12,5.1,4.34,5.1s4.67-2.41,4.67-6.14v-12.01Z"/>
  <path class="st0" d="M542.58,66.23v-6.14h4.21v-1.04c0-6.36,4.74-9.71,11.78-9.71,5.53,0,9.35,2.3,10.53,6.36l-6.52,1.7c-.66-1.1-1.45-1.7-2.83-1.7-1.78,0-2.43,1.21-2.43,2.74v1.64h7.44v6.14h-7.44v18.32h-10.53v-18.32h-4.21Z"/>
  <path class="st0" d="M608.19,76.49c-1.51,5.59-6.91,8.72-14.68,8.72-9.41,0-16.12-4.72-16.12-12.5s6.84-13.27,15.99-13.27c9.81,0,15,5.59,15,12.23v2.47h-20.6c.26,3.02,2.9,4.44,6.12,4.44,2.9,0,4.74-.82,5.73-2.74l8.56.66ZM598.25,69.85c-.13-2.19-1.84-4.06-5-4.06-3.42,0-4.94,1.75-5.33,4.06h10.33Z"/>
  <path class="st0" d="M611.94,50h10.79v7.79h-10.79v-7.79ZM622.67,60.09v24.46h-10.66v-24.46h10.66Z"/>
  <path class="st0" d="M638.31,84.55h-10.66v-24.46h10.66v3.67c1.58-2.69,5.07-4.33,9.48-4.33,8.03,0,10.6,4.66,10.6,9.76v15.36h-10.66v-13c0-3.35-1.12-5.1-4.34-5.1-3.62,0-5.07,2.41-5.07,6.09v12.01Z"/>
  <path class="st0" d="M692.32,76.49c-1.51,5.59-6.91,8.72-14.68,8.72-9.41,0-16.12-4.72-16.12-12.5s6.84-13.27,15.99-13.27c9.81,0,15,5.59,15,12.23v2.47h-20.6c.26,3.02,2.9,4.44,6.12,4.44,2.9,0,4.74-.82,5.73-2.74l8.56.66ZM682.38,69.85c-.13-2.19-1.84-4.06-5-4.06-3.42,0-4.94,1.75-5.33,4.06h10.33Z"/>
  <path class="st0" d="M706.87,84.55h-10.66v-24.46h10.66v3.67c1.58-2.69,5.07-4.33,9.48-4.33,8.03,0,10.6,4.66,10.6,9.76v15.36h-10.66v-13c0-3.35-1.12-5.1-4.34-5.1-3.62,0-5.07,2.41-5.07,6.09v12.01Z"/>
  <path class="st0" d="M770.83,84.55l-11.52-13.76-3.62,3.29v10.47h-11.19v-34.55h11.19v13.98l14.87-13.98h12.83l-15.99,14.7,16.78,19.85h-13.36Z"/>
  <path class="st0" d="M812.99,77.37c0,1.26.66,1.81,1.78,1.81.86,0,1.51-.11,2.37-.38v4.72c-1.51.88-3.62,1.59-6.65,1.59-3.62,0-6.45-1.54-7.44-4.33-1.71,2.85-5.07,4.33-9.74,4.33-5.73,0-9.48-2.47-9.48-6.64,0-4.72,4.08-6.75,10.46-7.68l8.23-1.15v-.38c0-2.03-1.12-3.24-3.69-3.24-2.37,0-3.55,1.26-4.01,3.07l-9.87-.55c.92-5.37,5.73-9.1,14.54-9.1,7.77,0,13.49,2.8,13.49,9.6v8.34ZM802.52,73.96l-4.34.66c-2.57.44-4.08,1.1-4.08,2.69,0,1.26,1.18,2.08,2.96,2.08,3.03,0,5.46-1.86,5.46-5.04v-.38Z"/>
  <path class="st0" d="M816.38,66.23v-6.14h4.21v-1.04c0-6.36,4.74-9.71,11.78-9.71,5.53,0,9.35,2.3,10.53,6.36l-6.52,1.7c-.66-1.1-1.45-1.7-2.83-1.7-1.78,0-2.43,1.21-2.43,2.74v1.64h7.44v6.14h-7.44v18.32h-10.53v-18.32h-4.21Z"/>
  <path class="st0" d="M839.05,66.23v-6.14h4.21v-1.04c0-6.36,4.74-9.71,11.78-9.71,5.53,0,9.35,2.3,10.53,6.36l-6.52,1.7c-.66-1.1-1.45-1.7-2.83-1.7-1.78,0-2.43,1.21-2.43,2.74v1.64h7.44v6.14h-7.44v18.32h-10.53v-18.32h-4.21Z"/>
  <path class="st0" d="M892.32,76.49c-1.51,5.59-6.91,8.72-14.68,8.72-9.41,0-16.12-4.72-16.12-12.5s6.84-13.27,15.99-13.27c9.81,0,15,5.59,15,12.23v2.47h-20.6c.26,3.02,2.9,4.44,6.12,4.44,2.9,0,4.74-.82,5.73-2.74l8.56.66ZM882.38,69.85c-.13-2.19-1.84-4.06-5-4.06-3.42,0-4.94,1.75-5.33,4.06h10.33Z"/>
  <path class="st0" d="M925.4,76.49c-1.51,5.59-6.91,8.72-14.68,8.72-9.41,0-16.12-4.72-16.12-12.5s6.84-13.27,15.99-13.27c9.81,0,15,5.59,15,12.23v2.47h-20.6c.26,3.02,2.9,4.44,6.12,4.44,2.9,0,4.74-.82,5.73-2.74l8.56.66ZM915.47,69.85c-.13-2.19-1.84-4.06-5-4.06-3.42,0-4.94,1.75-5.33,4.06h10.33Z"/>
  <path class="st0" d="M203.65,116.51v-6.42h25.73v6.03l-13.23,12.01h13.56v6.42h-26.32v-6.09l13.03-11.96h-12.77Z"/>
  <path class="st0" d="M252.83,110.09h10.66v24.46h-10.66v-3.67c-1.58,2.74-4.8,4.33-9.21,4.33-8.03,0-10.46-4.61-10.46-9.71v-15.41h10.66v13.05c0,3.29,1.12,5.1,4.34,5.1s4.67-2.41,4.67-6.14v-12.01Z"/>
  <path class="st0" d="M276.06,126.49c.39,2.03,2.37,3.18,5.59,3.18,2.37,0,3.62-.71,3.62-1.7,0-.93-.66-1.59-2.7-1.86l-4.34-.55c-7.11-.93-10.86-2.85-10.86-7.84s5.07-8.28,13.29-8.28,13.49,3.13,14.08,8.23l-8.75.22c-.4-1.75-2.24-2.85-5.53-2.85-2.04,0-3.22.66-3.22,1.75,0,.82.79,1.26,1.78,1.37l5.73.82c6.58.88,10.4,3.34,10.4,8.12,0,5.15-5.26,8.12-13.62,8.12s-14.15-2.69-14.74-8.61l9.28-.11Z"/>
  <path class="st0" d="M326.21,127.37c0,1.26.66,1.81,1.78,1.81.86,0,1.51-.11,2.37-.38v4.72c-1.51.88-3.62,1.59-6.65,1.59-3.62,0-6.45-1.54-7.44-4.33-1.71,2.85-5.07,4.33-9.74,4.33-5.73,0-9.48-2.47-9.48-6.64,0-4.72,4.08-6.75,10.46-7.68l8.23-1.15v-.38c0-2.03-1.12-3.24-3.69-3.24-2.37,0-3.55,1.26-4.01,3.07l-9.87-.55c.92-5.37,5.73-9.1,14.54-9.1,7.77,0,13.49,2.8,13.49,9.6v8.34ZM315.74,123.96l-4.34.66c-2.57.44-4.08,1.1-4.08,2.69,0,1.26,1.18,2.08,2.96,2.08,3.03,0,5.46-1.86,5.46-5.04v-.38Z"/>
  <path class="st0" d="M371.84,109.43c8.09,0,10.46,4.66,10.46,9.76v15.36h-10.66v-13c0-3.35-.72-5.1-3.95-5.1-3.55,0-4.74,2.41-4.74,6.09v12.01h-10.66v-13c0-3.35-.79-5.1-4.01-5.1-3.49,0-4.74,2.41-4.74,6.09v12.01h-10.66v-24.46h10.66v3.67c1.58-2.69,4.74-4.33,9.15-4.33,5.2,0,7.9,1.97,9.15,4.83,1.58-2.74,5.07-4.83,10-4.83Z"/>
  <path class="st0" d="M426.18,109.43c8.09,0,10.46,4.66,10.46,9.76v15.36h-10.66v-13c0-3.35-.72-5.1-3.95-5.1-3.55,0-4.74,2.41-4.74,6.09v12.01h-10.66v-13c0-3.35-.79-5.1-4.01-5.1-3.49,0-4.74,2.41-4.74,6.09v12.01h-10.66v-24.46h10.66v3.67c1.58-2.69,4.74-4.33,9.15-4.33,5.2,0,7.9,1.97,9.15,4.83,1.58-2.74,5.07-4.83,10-4.83Z"/>
  <path class="st0" d="M470.65,126.49c-1.51,5.59-6.91,8.72-14.68,8.72-9.41,0-16.12-4.72-16.12-12.5s6.84-13.27,15.99-13.27c9.81,0,15,5.59,15,12.23v2.47h-20.6c.26,3.02,2.9,4.44,6.12,4.44,2.9,0,4.74-.82,5.73-2.74l8.56.66ZM460.71,119.85c-.13-2.19-1.84-4.06-5-4.06-3.42,0-4.94,1.75-5.33,4.06h10.33Z"/>
  <path class="st0" d="M485.2,134.55h-10.66v-24.46h10.66v3.67c1.58-2.69,5.07-4.33,9.48-4.33,8.03,0,10.6,4.66,10.6,9.76v15.36h-10.66v-13c0-3.35-1.12-5.1-4.34-5.1-3.62,0-5.07,2.41-5.07,6.09v12.01Z"/>
  <path class="st0" d="M517.57,126.49c.39,2.03,2.37,3.18,5.59,3.18,2.37,0,3.62-.71,3.62-1.7,0-.93-.66-1.59-2.7-1.86l-4.34-.55c-7.11-.93-10.86-2.85-10.86-7.84s5.07-8.28,13.29-8.28,13.49,3.13,14.08,8.23l-8.75.22c-.4-1.75-2.24-2.85-5.53-2.85-2.04,0-3.22.66-3.22,1.75,0,.82.79,1.26,1.78,1.37l5.73.82c6.58.88,10.4,3.34,10.4,8.12,0,5.15-5.26,8.12-13.62,8.12s-14.15-2.69-14.74-8.61l9.28-.11Z"/>
  <path class="st0" d="M569.28,126.49c-1.51,5.59-6.91,8.72-14.68,8.72-9.41,0-16.12-4.72-16.12-12.5s6.84-13.27,15.99-13.27c9.81,0,15,5.59,15,12.23v2.47h-20.6c.26,3.02,2.9,4.44,6.12,4.44,2.9,0,4.74-.82,5.73-2.74l8.56.66ZM559.34,119.85c-.13-2.19-1.84-4.06-5-4.06-3.42,0-4.94,1.75-5.33,4.06h10.33Z"/>
  <path class="st0" d="M574.26,116.23h-3.95v-5.48l2.17-.27c2.96-.38,3.88-1.7,4.61-3.95l.99-3.18h6.71v6.75h7.63v6.14h-7.63v8.94c0,2.08,1.18,2.91,3.36,2.91,1.32,0,2.76-.22,4.54-.82v5.76c-2.24,1.37-4.8,2.19-8.82,2.19-4.94,0-9.61-1.7-9.61-7.46v-11.52Z"/>
  <path class="st0" d="M595.73,116.51v-6.42h25.73v6.03l-13.23,12.01h13.56v6.42h-26.32v-6.09l13.03-11.96h-12.77Z"/>
  <path class="st0" d="M654.31,126.49c-1.51,5.59-6.91,8.72-14.68,8.72-9.41,0-16.12-4.72-16.12-12.5s6.84-13.27,15.99-13.27c9.81,0,15,5.59,15,12.23v2.47h-20.6c.26,3.02,2.9,4.44,6.12,4.44,2.9,0,4.74-.82,5.73-2.74l8.56.66ZM644.38,119.85c-.13-2.19-1.84-4.06-5-4.06-3.42,0-4.94,1.75-5.33,4.06h10.33Z"/>
  <path class="st0" d="M668.86,134.55h-10.66v-24.46h10.66v3.67c1.58-2.69,5.07-4.33,9.48-4.33,8.03,0,10.6,4.66,10.6,9.76v15.36h-10.66v-13c0-3.35-1.12-5.1-4.34-5.1-3.62,0-5.07,2.41-5.07,6.09v12.01Z"/>
  <path class="st0" d="M702.02,123.03c.13-2.63,1.45-5.1,4.34-7.02,2.63-1.75,4.67-3.07,4.67-5.54,0-1.75-1.38-3.24-4.15-3.24-3.75,0-5.07,2.19-5.07,4.99,0,1.32.2,2.14.46,2.85l-10.92-.27c-.26-1.1-.53-2.19-.53-3.24,0-7.4,6.58-12.23,16.12-12.23,10.07,0,15.79,4.72,15.79,10.64,0,4.5-3.29,7.02-7.04,9.32-2.11,1.32-3.22,2.36-3.36,3.73h-10.33ZM701.49,125.12h11.32v9.43h-11.32v-9.43Z"/>
</svg>