<?xml version="1.0" encoding="UTF-8"?>
<svg id="Layer_1" xmlns="http://www.w3.org/2000/svg" version="1.1" viewBox="0 0 577.87 93.32">
  <!-- Generator: Adobe Illustrator 30.1.0, SVG Export Plug-In . SVG Version: 2.1.1 Build 136)  -->
  <defs>
    <style>
      .st0 {
        fill: #fff;
      }
    </style>
  </defs>
  <path class="st0" d="M55.09,21.66h.26L61.94,0h10.79l-10.86,34.55h-11.91l-6.91-21.83h-.26l-6.91,21.83h-11.71L13.3,0h11.19l6.58,21.66h.26L38.18,0h10.07l6.84,21.66Z"/>
  <path class="st0" d="M74.78,0h10.79v7.79h-10.79V0ZM85.51,10.09v24.46h-10.66V10.09h10.66Z"/>
  <path class="st0" d="M119.68,26.49c-1.51,5.59-6.91,8.72-14.68,8.72-9.41,0-16.12-4.72-16.12-12.5s6.84-13.27,15.99-13.27c9.81,0,15,5.59,15,12.23v2.47h-20.6c.26,3.02,2.9,4.44,6.12,4.44,2.9,0,4.74-.82,5.73-2.74l8.56.66ZM109.75,19.85c-.13-2.19-1.84-4.06-5-4.06-3.42,0-4.94,1.75-5.33,4.06h10.33Z"/>
  <path class="st0" d="M166.21,23.96h.26l5.26-13.88h9.61l-9.28,24.46h-10.46l-4.28-13.82h-.26l-4.28,13.82h-10.46l-9.28-24.46h10.6l5.26,13.88h.26l4.28-13.88h8.49l4.28,13.88Z"/>
  <path class="st0" d="M210.02,27.37c0,1.26.66,1.81,1.78,1.81.86,0,1.51-.11,2.37-.38v4.72c-1.51.88-3.62,1.59-6.65,1.59-3.62,0-6.45-1.54-7.44-4.33-1.71,2.85-5.07,4.33-9.74,4.33-5.73,0-9.48-2.47-9.48-6.64,0-4.72,4.08-6.75,10.46-7.68l8.23-1.15v-.38c0-2.03-1.12-3.24-3.69-3.24-2.37,0-3.55,1.26-4.01,3.07l-9.87-.55c.92-5.37,5.73-9.1,14.54-9.1,7.77,0,13.49,2.8,13.49,9.6v8.34ZM185.86,0h9.34v7.79h-9.34V0ZM199.55,23.96l-4.34.66c-2.57.44-4.08,1.1-4.08,2.69,0,1.26,1.18,2.08,2.96,2.08,3.03,0,5.46-1.86,5.46-5.04v-.38ZM198.24,0h9.35v7.79h-9.35V0Z"/>
  <path class="st0" d="M238.8,18.75c-1.45-.71-3.03-1.04-5.07-1.04-3.95,0-6.38,1.54-6.38,5.65v11.19h-10.66V10.09h10.66v4.33c1.05-2.74,4.15-4.99,8.03-4.99,1.78,0,3.36.44,4.08.93l-.66,8.39Z"/>
  <path class="st0" d="M242.47,0h11.12v7.68c0,5.38-3.75,7.62-11.12,7.79v-4.22c3.16-.11,4.94-.82,5-3.02h-5V0Z"/>
  <path class="st0" d="M263.22,26.49c.39,2.03,2.37,3.18,5.59,3.18,2.37,0,3.62-.71,3.62-1.7,0-.93-.66-1.59-2.7-1.86l-4.34-.55c-7.11-.93-10.86-2.85-10.86-7.84s5.07-8.28,13.29-8.28,13.49,3.13,14.08,8.23l-8.75.22c-.4-1.75-2.24-2.85-5.53-2.85-2.04,0-3.22.66-3.22,1.75,0,.82.79,1.26,1.78,1.37l5.73.82c6.58.88,10.4,3.34,10.4,8.12,0,5.15-5.26,8.12-13.62,8.12s-14.15-2.69-14.74-8.61l9.28-.11Z"/>
  <path class="st0" d="M285.71,25.12h11.32v8.83c0,5.43-4.01,8.06-11.32,8.23v-4.28c3.09-.06,4.94-1.15,4.94-3.35h-4.94v-9.43Z"/>
  <path class="st0" d="M343.88,23.96h.26l5.26-13.88h9.61l-9.28,24.46h-10.46l-4.28-13.82h-.26l-4.28,13.82h-10.46l-9.28-24.46h10.6l5.26,13.88h.26l4.28-13.88h8.49l4.28,13.88Z"/>
  <path class="st0" d="M389.39,26.49c-1.51,5.59-6.91,8.72-14.68,8.72-9.41,0-16.12-4.72-16.12-12.5s6.84-13.27,15.99-13.27c9.81,0,15,5.59,15,12.23v2.47h-20.6c.26,3.02,2.9,4.44,6.12,4.44,2.9,0,4.74-.82,5.73-2.74l8.56.66ZM379.46,19.85c-.13-2.19-1.84-4.06-5-4.06-3.42,0-4.94,1.75-5.33,4.06h10.33Z"/>
  <path class="st0" d="M403.94,34.55h-10.66V10.09h10.66v3.67c1.58-2.69,5.07-4.33,9.48-4.33,8.03,0,10.6,4.66,10.6,9.76v15.36h-10.66v-13c0-3.35-1.12-5.1-4.34-5.1-3.62,0-5.07,2.41-5.07,6.09v12.01Z"/>
  <path class="st0" d="M439.52,34.55h-10.66V10.09h10.66v3.67c1.58-2.69,5.07-4.33,9.48-4.33,8.03,0,10.6,4.66,10.6,9.76v15.36h-10.66v-13c0-3.35-1.12-5.1-4.34-5.1-3.62,0-5.07,2.41-5.07,6.09v12.01Z"/>
  <path class="st0" d="M507.04,23.96h.26l5.26-13.88h9.61l-9.28,24.46h-10.46l-4.28-13.82h-.26l-4.28,13.82h-10.46l-9.28-24.46h10.6l5.26,13.88h.26l4.28-13.88h8.49l4.28,13.88Z"/>
  <path class="st0" d="M524.11,0h10.79v7.79h-10.79V0ZM534.84,10.09v24.46h-10.66V10.09h10.66Z"/>
  <path class="st0" d="M561.93,18.75c-1.45-.71-3.03-1.04-5.07-1.04-3.95,0-6.38,1.54-6.38,5.65v11.19h-10.66V10.09h10.66v4.33c1.05-2.74,4.15-4.99,8.03-4.99,1.78,0,3.36.44,4.08.93l-.66,8.39Z"/>
  <path class="st0" d="M38.96,59.43c8.09,0,10.46,4.66,10.46,9.76v15.36h-10.66v-13c0-3.35-.72-5.1-3.95-5.1-3.55,0-4.74,2.41-4.74,6.09v12.01h-10.66v-13c0-3.35-.79-5.1-4.01-5.1-3.49,0-4.74,2.41-4.74,6.09v12.01H0v-24.46h10.66v3.67c1.58-2.69,4.74-4.33,9.15-4.33,5.2,0,7.9,1.97,9.15,4.83,1.58-2.74,5.07-4.83,10-4.83Z"/>
  <path class="st0" d="M81.73,77.37c0,1.26.66,1.81,1.78,1.81.86,0,1.51-.11,2.37-.38v4.72c-1.51.88-3.62,1.59-6.65,1.59-3.62,0-6.45-1.54-7.44-4.33-1.71,2.85-5.07,4.33-9.74,4.33-5.73,0-9.48-2.47-9.48-6.64,0-4.72,4.08-6.75,10.46-7.68l8.23-1.15v-.38c0-2.03-1.12-3.24-3.69-3.24-2.37,0-3.55,1.26-4.01,3.07l-9.87-.55c.92-5.37,5.73-9.1,14.54-9.1,7.77,0,13.49,2.8,13.49,9.6v8.34ZM71.27,73.96l-4.34.66c-2.57.44-4.08,1.1-4.08,2.69,0,1.26,1.18,2.08,2.96,2.08,3.03,0,5.46-1.86,5.46-5.04v-.38Z"/>
  <path class="st0" d="M99.16,50v34.55h-10.66v-34.55h10.66Z"/>
  <path class="st0" d="M146.01,76.49c-1.51,5.59-6.91,8.72-14.68,8.72-9.41,0-16.12-4.72-16.12-12.5s6.84-13.27,15.99-13.27c9.81,0,15,5.59,15,12.23v2.47h-20.6c.26,3.02,2.9,4.44,6.12,4.44,2.9,0,4.74-.82,5.73-2.74l8.56.66ZM136.08,69.85c-.13-2.19-1.84-4.06-5-4.06-3.42,0-4.94,1.75-5.33,4.06h10.33Z"/>
  <path class="st0" d="M151,66.23h-3.95v-5.48l2.17-.27c2.96-.38,3.88-1.7,4.61-3.95l.99-3.18h6.71v6.75h7.63v6.14h-7.63v8.94c0,2.08,1.18,2.91,3.36,2.91,1.32,0,2.76-.22,4.54-.82v5.76c-2.24,1.37-4.8,2.19-8.82,2.19-4.94,0-9.61-1.7-9.61-7.46v-11.52Z"/>
  <path class="st0" d="M203.61,73.96h.26l5.26-13.88h9.61l-9.28,24.46h-10.46l-4.28-13.82h-.26l-4.28,13.82h-10.46l-9.28-24.46h10.6l5.26,13.88h.26l4.28-13.88h8.49l4.28,13.88Z"/>
  <path class="st0" d="M247.42,77.37c0,1.26.66,1.81,1.78,1.81.86,0,1.51-.11,2.37-.38v4.72c-1.51.88-3.62,1.59-6.65,1.59-3.62,0-6.45-1.54-7.44-4.33-1.71,2.85-5.07,4.33-9.74,4.33-5.73,0-9.48-2.47-9.48-6.64,0-4.72,4.08-6.75,10.46-7.68l8.23-1.15v-.38c0-2.03-1.12-3.24-3.69-3.24-2.37,0-3.55,1.26-4.01,3.07l-9.87-.55c.92-5.37,5.73-9.1,14.54-9.1,7.77,0,13.49,2.8,13.49,9.6v8.34ZM236.96,73.96l-4.34.66c-2.57.44-4.08,1.1-4.08,2.69,0,1.26,1.18,2.08,2.96,2.08,3.03,0,5.46-1.86,5.46-5.04v-.38Z"/>
  <path class="st0" d="M261.83,76.49c.39,2.03,2.37,3.18,5.59,3.18,2.37,0,3.62-.71,3.62-1.7,0-.93-.66-1.59-2.7-1.86l-4.34-.55c-7.11-.93-10.86-2.85-10.86-7.84s5.07-8.28,13.29-8.28,13.49,3.13,14.08,8.23l-8.75.22c-.4-1.75-2.24-2.85-5.53-2.85-2.04,0-3.22.66-3.22,1.75,0,.82.79,1.26,1.78,1.37l5.73.82c6.58.88,10.4,3.34,10.4,8.12,0,5.15-5.26,8.12-13.62,8.12s-14.15-2.69-14.74-8.61l9.28-.11Z"/>
  <path class="st0" d="M307.5,93.32h-10.66v-33.23h10.66v4.22c1.45-2.91,4.74-4.88,9.67-4.88,8.62,0,13.03,5.7,13.03,12.89s-4.41,12.89-13.03,12.89c-4.94,0-8.23-1.97-9.67-4.83v12.94ZM307.5,72.48c0,3.56,2.3,5.87,5.92,5.87,4.15,0,6.05-2.47,6.05-6.03s-1.91-5.98-6.05-5.98c-3.62,0-5.92,2.3-5.92,5.81v.33Z"/>
  <path class="st0" d="M344.56,50v34.55h-10.66v-34.55h10.66Z"/>
  <path class="st0" d="M377.07,77.37c0,1.26.66,1.81,1.78,1.81.86,0,1.51-.11,2.37-.38v4.72c-1.51.88-3.62,1.59-6.65,1.59-3.62,0-6.45-1.54-7.44-4.33-1.71,2.85-5.07,4.33-9.74,4.33-5.73,0-9.48-2.47-9.48-6.64,0-4.72,4.08-6.75,10.46-7.68l8.23-1.15v-.38c0-2.03-1.12-3.24-3.69-3.24-2.37,0-3.55,1.26-4.01,3.07l-9.87-.55c.92-5.37,5.73-9.1,14.54-9.1,7.77,0,13.49,2.8,13.49,9.6v8.34ZM366.6,73.96l-4.34.66c-2.57.44-4.08,1.1-4.08,2.69,0,1.26,1.18,2.08,2.96,2.08,3.03,0,5.46-1.86,5.46-5.04v-.38Z"/>
  <path class="st0" d="M402.72,60.09h10.66v24.46h-10.66v-3.67c-1.58,2.74-4.8,4.33-9.21,4.33-8.03,0-10.46-4.61-10.46-9.71v-15.41h10.66v13.05c0,3.29,1.12,5.1,4.34,5.1s4.67-2.41,4.67-6.14v-12.01Z"/>
  <path class="st0" d="M439.65,80.38c-1.38,2.85-4.74,4.83-9.61,4.83-8.69,0-13.03-5.65-13.03-12.89s4.34-12.89,13.03-12.89c4.87,0,8.23,1.97,9.61,4.88v-14.31h10.66v34.55h-10.66v-4.17ZM439.65,72.16c0-3.51-2.3-5.81-5.86-5.81-4.21,0-6.05,2.47-6.05,5.98s1.84,6.03,6.05,6.03c3.55,0,5.86-2.3,5.86-5.87v-.33Z"/>
  <path class="st0" d="M484.52,76.49c-1.51,5.59-6.91,8.72-14.68,8.72-9.41,0-16.12-4.72-16.12-12.5s6.84-13.27,15.99-13.27c9.81,0,15,5.59,15,12.23v2.47h-20.6c.26,3.02,2.9,4.44,6.12,4.44,2.9,0,4.74-.82,5.73-2.74l8.56.66ZM474.58,69.85c-.13-2.19-1.84-4.06-5-4.06-3.42,0-4.94,1.75-5.33,4.06h10.33Z"/>
  <path class="st0" d="M510.52,68.75c-1.45-.71-3.03-1.04-5.07-1.04-3.95,0-6.38,1.54-6.38,5.65v11.19h-10.66v-24.46h10.66v4.33c1.05-2.74,4.15-4.99,8.03-4.99,1.78,0,3.36.44,4.08.93l-.66,8.39Z"/>
  <path class="st0" d="M523.98,84.55h-10.66v-24.46h10.66v3.67c1.58-2.69,5.07-4.33,9.48-4.33,8.03,0,10.6,4.66,10.6,9.76v15.36h-10.66v-13c0-3.35-1.12-5.1-4.34-5.1-3.62,0-5.07,2.41-5.07,6.09v12.01Z"/>
  <path class="st0" d="M557.14,73.03c.13-2.63,1.45-5.1,4.34-7.02,2.63-1.75,4.67-3.07,4.67-5.54,0-1.75-1.38-3.24-4.15-3.24-3.75,0-5.07,2.19-5.07,4.99,0,1.32.2,2.14.46,2.85l-10.92-.27c-.26-1.1-.53-2.19-.53-3.24,0-7.4,6.58-12.23,16.12-12.23,10.07,0,15.79,4.72,15.79,10.64,0,4.5-3.29,7.02-7.04,9.32-2.11,1.32-3.22,2.36-3.36,3.73h-10.33ZM556.61,75.12h11.32v9.43h-11.32v-9.43Z"/>
</svg>